<svg width="108" height="100" xmlns="http://www.w3.org/2000/svg"><defs><filter x="-90%" y="-90%" width="280%" height="280%" filterUnits="objectBoundingBox" id="a"><feGaussianBlur stdDeviation="12" in="SourceGraphic"/></filter><linearGradient x1="17.713%" y1="0%" x2="77.754%" y2="68.424%" id="b"><stop stop-color="#2C3039" offset="0%"/><stop stop-color="#8A94A7" offset="100%"/></linearGradient><linearGradient x1="49.892%" y1=".428%" x2="24.856%" y2="100%" id="c"><stop stop-color="#3B404C" offset="0%"/><stop stop-color="#333843" offset="100%"/></linearGradient></defs><g fill="none" fill-rule="evenodd"><path fill-opacity=".32" fill="#00BFFB" d="M31.292 84.984l1.313-5.055-14.613 4.415-1.313 5.056z"/><path d="M41.203 74.416L.222 46.516l30.541-21.314 23.908 16.277-11.69 10.84-1.706 22-.072.097z" fill="#0270D7"/><path fill="#00BFFB" d="M103.305 14.443l4.556-4.866-16.287-4.74-4.556 4.867z"/><path fill="#02CBB1" d="M56.9 77.244L54.771 92.89 94.416 77.84l2.128-15.648z"/><path fill-opacity=".48" fill="#1D2026" filter="url(#a)" d="M31.778 38.241h40v40h-40z" transform="translate(.222 -2.241)"/><path d="M88.023 31.352a2.962 2.962 0 0 0-1.296-1.359l-29.464-15.06a2.888 2.888 0 0 0-2.634.001L25.147 30.03a2.972 2.972 0 0 0-1.298 1.361l32.078 16.398 32.096-16.436z" fill="url(#b)" fill-rule="nonzero" transform="rotate(31 66.542 55.443)"/><path d="M43.266 11.908a3.154 3.154 0 0 0-.96.977L23.763 43.707c-.586.974-.605 2.174-.048 3.1l16.423 27.335c.228.379.543.693.917.917l20.09-33.39-17.878-29.76z" fill="#2C3039" fill-rule="nonzero"/><path d="M38.935 50.59v38.956a3.04 3.04 0 0 0 1.35-.3L70.47 74.263a2.994 2.994 0 0 0 1.67-2.697V35.608a2.98 2.98 0 0 0-.342-1.33L38.935 50.59z" fill="url(#c)" transform="rotate(31 66.143 86.153)"/></g></svg>