<svg width="98" height="100" xmlns="http://www.w3.org/2000/svg"><defs><filter x="-90%" y="-90%" width="280%" height="280%" filterUnits="objectBoundingBox" id="a"><feGaussianBlur stdDeviation="12" in="SourceGraphic"/></filter><linearGradient x1="49.892%" y1=".428%" x2="24.856%" y2="100%" id="b"><stop stop-color="#3B404C" offset="0%"/><stop stop-color="#333843" offset="100%"/></linearGradient><linearGradient x1="17.713%" y1="0%" x2="77.754%" y2="68.424%" id="c"><stop stop-color="#2C3039" offset="0%"/><stop stop-color="#8A94A7" offset="100%"/></linearGradient></defs><g fill="none" fill-rule="evenodd"><path d="M49.028 61.452L1.086 74.076l3.95-37.033 27.97-7.364c.1 3.076.27 8.387.512 15.934l15.485 15.72.025.119z" fill="#0270D7"/><path fill-opacity=".32" fill="#00BFFB" d="M23.725 84.328l-5.66 3.52 14.505 8.794 5.66-3.522z"/><path fill="#02CBB1" d="M89.345 72.466l-1.72-15.697L52.8 80.964l1.72 15.698z"/><path fill-opacity=".48" fill="#1D2026" filter="url(#a)" d="M44 41h40v40H44z" transform="translate(-15 -10)"/><path fill="url(#b)" d="M37.841 71.977L0 54.169 37.231 0z" transform="rotate(-36 55.277 18.264)"/><path fill="url(#c)" fill-rule="nonzero" transform="scale(-1 1) rotate(36 .538 -153.515)" d="M73.788 71.977L37.229 54 74.4 0z"/><path fill-opacity=".32" fill="#00BFFB" d="M58.57 10.221l-1.048 5.117 14.362-5.174 1.047-5.118z"/></g></svg>