<svg width="302" height="348" xmlns="http://www.w3.org/2000/svg"><defs><linearGradient x1="0%" y1="0%" y2="88.353%" id="a"><stop stop-color="#FFF" offset="0%"/><stop stop-color="#FFF" stop-opacity="0" offset="100%"/></linearGradient></defs><g fill="none" fill-rule="evenodd"><g fill="#FFF"><path d="M76.919 45.44c.294-1.08-.108-1.132-.405-.14a7.215 7.215 0 0 1-.25.611 7.85 7.85 0 0 0 .456-1.368v-.003c.175.033.389-.146.604-.588.11-.223.176-.52.25-.881.034-.362.079-.794.008-1.278-.217-2.003-1.179-3.896-2.65-5.221-1.468-1.335-3.434-2.046-5.399-2.012a8.017 8.017 0 0 0-5.373 2.226c-1.463 1.376-2.391 3.316-2.592 5.318a8.254 8.254 0 0 0 1.488 5.66 7.814 7.814 0 0 0 4.757 3.118c1.884.403 3.906.032 5.559-.97a8.214 8.214 0 0 0 3.547-4.471"/><path d="M48.497 61.03c-.266.979.15 1.034.422.143.067-.185.144-.365.227-.543a6.826 6.826 0 0 0-.412 1.225v.003c-.182-.036-.398.12-.61.517-.108.202-.174.47-.244.798-.033.328-.074.722-.004 1.163a7.612 7.612 0 0 0 2.54 4.775c1.397 1.227 3.257 1.89 5.11 1.874a7.523 7.523 0 0 0 7.448-6.804c.19-1.825-.356-3.702-1.452-5.159a7.55 7.55 0 0 0-4.507-2.867 7.428 7.428 0 0 0-5.223.842 7.323 7.323 0 0 0-3.295 4.032" fill-opacity=".64"/><path d="M34.452 73.065a6.814 6.814 0 0 0 3.06-3.758c.247-.912-.185-.97-.437-.15a5.814 5.814 0 0 1-.208.496c.157-.357.287-.731.378-1.125v-.003c.188.038.409-.101.621-.468.107-.187.176-.437.246-.743.035-.306.076-.674.01-1.086a7.11 7.11 0 0 0-2.372-4.463c-1.305-1.147-3.043-1.766-4.774-1.75a7.067 7.067 0 0 0-4.716 1.856 7.021 7.021 0 0 0-2.237 4.502c-.176 1.705.336 3.456 1.36 4.813a7.038 7.038 0 0 0 4.205 2.67 6.92 6.92 0 0 0 4.864-.791" fill-opacity=".48"/><path d="M15.556 53.978c.21-.78-.209-.836-.423-.144a5.167 5.167 0 0 1-.175.415c.132-.3.241-.616.318-.947v-.003c.182.037.39-.075.588-.387.1-.158.165-.372.23-.634.035-.262.073-.578.017-.932a6.098 6.098 0 0 0-2.035-3.831c-1.12-.985-2.612-1.516-4.097-1.502-1.49.01-2.963.59-4.046 1.595a6.025 6.025 0 0 0-1.914 3.864 5.915 5.915 0 0 0 1.169 4.124 6.017 6.017 0 0 0 3.603 2.28 5.91 5.91 0 0 0 4.158-.683 5.818 5.818 0 0 0 2.607-3.215" fill-opacity=".32"/><path d="M11.076 29.26c.175-.648-.263-.711-.445-.148a3.8 3.8 0 0 1-.148.334c.112-.244.203-.5.265-.77v-.001c.191.04.403-.043.596-.297.181-.257.325-.705.229-1.305-.186-1.232-.886-2.412-1.928-3.252-1.043-.847-2.416-1.32-3.773-1.334-1.362-.019-2.697.441-3.667 1.266A4.671 4.671 0 0 0 .531 26.96c-.107 1.222.324 2.487 1.148 3.474.816.994 2.032 1.705 3.327 1.967 1.297.273 2.669.078 3.769-.502 1.105-.575 1.938-1.535 2.301-2.639" fill-opacity=".24"/><path d="M23.609 8.986c.152-.581-.268-.638-.425-.145-.037.1-.08.196-.126.291.094-.214.172-.438.226-.674v-.001c.182.038.384-.032.567-.259.174-.227.315-.633.247-1.17a4.582 4.582 0 0 0-1.53-2.887 4.63 4.63 0 0 0-3.084-1.13 4.522 4.522 0 0 0-4.473 4.114 4.437 4.437 0 0 0 .887 3.09 4.49 4.49 0 0 0 2.699 1.692 4.394 4.394 0 0 0 3.092-.525 4.313 4.313 0 0 0 1.92-2.396" fill-opacity=".16"/><path d="M48.657 4.656c.115-.449-.277-.502-.398-.135-.012.032-.032.06-.046.093.047-.123.09-.249.12-.38v-.002c.17.037.355-.008.52-.18.157-.172.282-.488.23-.908A3.57 3.57 0 0 0 47.893.89a3.604 3.604 0 0 0-2.406-.88 3.526 3.526 0 0 0-3.48 3.213c-.082.855.18 1.729.695 2.4a3.478 3.478 0 0 0 2.096 1.305c.82.165 1.69.003 2.388-.417a3.326 3.326 0 0 0 1.47-1.855" fill-opacity=".08"/><path d="M63.347 17.009c-.095.381.327.438.428.146.017-.045.044-.085.065-.128a2.285 2.285 0 0 0-.122.362.617.617 0 0 0-.548.127c-.164.141-.291.413-.247.776a3.07 3.07 0 0 0 1.021 1.942c.567.5 1.32.768 2.07.757a3.03 3.03 0 0 0 2.983-2.77 2.954 2.954 0 0 0-.603-2.054 2.953 2.953 0 0 0-1.792-1.104 2.875 2.875 0 0 0-2.025.368 2.812 2.812 0 0 0-1.23 1.578" fill-opacity=".04"/></g><path d="M216.17 38.887c-4.67-3.148-10.015-4.876-15.422-5.49-2.707-.347-5.454-.286-8.183-.023l-2.043.265-1.968.381c-.66.113-1.297.302-1.945.452-.648.154-1.292.32-1.922.516-10.215 2.978-18.986 8.4-27.77 12.792-17.4 8.892-37.08 13.095-56.65 12.621-19.566-.575-39.019-5.98-55.849-16.115l-1.59-.925-1.546-.997-3.089-1.999-2.996-2.137-1.497-1.07-1.449-1.134-2.893-2.277-2.788-2.402c-1.894-1.565-3.6-3.333-5.402-5-3.427-3.508-6.794-7.096-9.772-10.999-1.57-1.888-2.928-3.935-4.38-5.912-.7-1.007-1.343-2.052-2.017-3.076-.667-1.03-1.35-2.049-1.944-3.122-2.802-4.824-4.37-4.045-1.619.944.58 1.107 1.251 2.16 1.906 3.224.663 1.058 1.294 2.14 1.984 3.18 1.43 2.05 2.77 4.168 4.322 6.132 2.945 4.052 6.287 7.798 9.703 11.47 1.794 1.75 3.5 3.6 5.395 5.251l2.792 2.532 2.901 2.408 1.456 1.2 1.506 1.136 3.017 2.271 3.117 2.135 1.562 1.064 1.608.995c17.017 10.866 37.046 17.04 57.376 18.105 20.32.982 41.065-2.995 59.48-12.082 9.134-4.445 17.706-9.543 26.837-12.118 4.586-1.322 9.074-1.888 13.622-1.34 4.514.507 8.94 1.981 12.568 4.418 3.477 2.383 5.472 4.705 6.934 6.354.776.81 1.31 1.493 1.847 1.917.532.426 1.01.612 1.394.513.384-.099.674-.486.83-1.206.15-.718.223-1.795-.142-3.123a21.669 21.669 0 0 0-.28-1.072c-.11-.378-.298-.737-.47-1.135a36.352 36.352 0 0 0-.596-1.232c-.215-.432-.52-.819-.808-1.254-1.136-1.76-2.906-3.459-5.128-5.036" transform="translate(78 282)" fill="url(#a)"/></g></svg>