<?xml version="1.0" encoding="utf-8"?>
<!-- Generator: Adobe Illustrator 22.1.0, SVG Export Plug-In . SVG Version: 6.00 Build 0)  -->
<svg version="1.1" id="Layer_1" xmlns="http://www.w3.org/2000/svg" xmlns:xlink="http://www.w3.org/1999/xlink" x="0px" y="0px"
	 viewBox="0 0 35 35" style="enable-background:new 0 0 35 35;" xml:space="preserve">
<style type="text/css">
	.st0{fill:#028CBC;}
	.st1{fill:#06B3F7;}
</style>
<path class="st0" d="M20.5,17c-0.4-1-0.9-2-1.3-3c-0.5-1-1.1-2-1.7-3.1c-0.9-1.6-2-3.1-3.1-4.5c-1.2-1.6-2.5-3.2-3.8-4.7
	C10,1.1,9.5,0.6,9,0c0,0,0,0,0,0c0.2,0.6,0.4,1.2,0.6,1.8c0.5,1.5,0.9,3.1,1.2,4.7c0.4,2.1,0.6,4.2,0.7,6.3c0,2.3-0.1,4.6-0.5,6.9
	c-0.3,1.7-0.6,3.3-1.1,4.9c-0.3,1-0.6,2-1,2.9c-0.4,1.1-0.8,2.1-1.3,3.2c-0.6,1.3-1.2,2.5-1.8,3.7c-0.1,0.2-0.2,0.4-0.3,0.5h9.2
	c3.7-5.7,5.7-11.6,6-17.8C20.6,17.1,20.5,17,20.5,17"/>
<path class="st1" d="M26.3,35c0.2-0.6,0.4-1.3,0.5-1.9c0.4-1.7,0.5-3.5,0.5-5.3c0-3.1-0.5-6.1-1.2-9.1c-0.2-0.6-0.3-1.2-0.5-1.8l0,0
	c-0.1-0.2-0.1-0.4-0.2-0.6c-0.2-0.5-0.3-1.1-0.5-1.6c0-0.1-0.1-0.1-0.1-0.2l0,0c-1.3-3.5-4.4-9.2-5.5-10c1.2,3.7,1.8,7.2,1.8,10.7
	c0,0.7,0,1.3,0,2c-0.3,6.2-2.3,12.1-6,17.8L26.3,35L26.3,35z"/>
</svg>
