<svg width="736" height="435" xmlns="http://www.w3.org/2000/svg"><defs><linearGradient x1="0%" y1="0%" y2="88.353%" id="a"><stop stop-color="#00BFFB" offset="0%"/><stop stop-color="#FFF" stop-opacity="0" offset="100%"/></linearGradient><linearGradient x1="15.548%" y1="97.084%" x2="68.572%" y2="10.334%" id="b"><stop stop-color="#0270D7" offset="0%"/><stop stop-color="#FFF" stop-opacity="0" offset="100%"/></linearGradient><linearGradient x1="50%" y1="0%" x2="50%" y2="100%" id="c"><stop stop-color="#FFF" stop-opacity=".32" offset="0%"/><stop stop-color="#0270D7" stop-opacity="0" offset="100%"/></linearGradient><linearGradient x1="89.408%" y1="0%" x2="0%" y2="55.019%" id="d"><stop stop-color="#FFF" stop-opacity="0" offset="0%"/><stop stop-color="#FFF" stop-opacity=".64" offset="100%"/></linearGradient></defs><g fill="none" fill-rule="evenodd"><path d="M602.202 207.8c-4.67-3.148-10.014-4.876-15.421-5.49-2.707-.347-5.454-.286-8.183-.023l-2.043.265-1.968.381c-.661.113-1.297.302-1.945.452-.648.154-1.292.32-1.922.516-10.215 2.978-18.986 8.4-27.77 12.792-17.401 8.892-37.081 13.095-56.651 12.621-19.565-.575-39.018-5.98-55.848-16.115l-1.59-.925-1.546-.997-3.09-1.999-2.995-2.137-1.497-1.07-1.45-1.134-2.892-2.277-2.788-2.402c-1.894-1.565-3.601-3.333-5.402-5-3.427-3.508-6.794-7.096-9.772-10.999-1.571-1.888-2.928-3.935-4.381-5.912-.7-1.007-1.342-2.052-2.016-3.076-.667-1.03-1.351-2.049-1.944-3.122-2.802-4.824-4.37-4.045-1.62.944.58 1.107 1.252 2.16 1.907 3.224.663 1.058 1.294 2.14 1.984 3.18 1.43 2.05 2.769 4.168 4.322 6.132 2.945 4.052 6.287 7.798 9.703 11.47 1.794 1.75 3.5 3.6 5.395 5.251l2.792 2.532 2.9 2.408 1.457 1.2 1.506 1.136 3.017 2.271 3.117 2.135 1.562 1.064 1.608.995c17.017 10.866 37.046 17.04 57.376 18.105 20.32.982 41.065-2.995 59.48-12.082 9.134-4.445 17.706-9.543 26.837-12.118 4.586-1.322 9.074-1.888 13.622-1.34 4.514.507 8.94 1.981 12.568 4.418 3.477 2.383 5.472 4.705 6.934 6.354.776.81 1.31 1.493 1.847 1.917.532.426 1.01.612 1.394.513.384-.099.674-.486.83-1.206.149-.718.223-1.795-.142-3.123a21.669 21.669 0 0 0-.281-1.072c-.11-.378-.297-.737-.47-1.135a36.352 36.352 0 0 0-.595-1.232c-.215-.432-.52-.819-.808-1.254-1.136-1.76-2.906-3.459-5.128-5.036" fill="url(#a)" transform="scale(-1 1) rotate(16 1.413 -3339.98)"/><path d="M560.133 320.272a6.814 6.814 0 0 0-4.35-2.137c-.945-.035-.904.4-.047.46.178.022.354.054.53.092a6.259 6.259 0 0 0-1.182-.116h-.003c-.005-.191-.19-.375-.596-.499-.206-.062-.465-.072-.779-.072-.306.034-.674.077-1.06.233a7.11 7.11 0 0 0-3.815 3.316c-.824 1.53-1.036 3.363-.632 5.045a7.067 7.067 0 0 0 2.87 4.178 7.021 7.021 0 0 0 4.89 1.167c1.7-.212 3.29-1.105 4.384-2.407a7.038 7.038 0 0 0 1.655-4.699 6.92 6.92 0 0 0-1.865-4.561" fill-opacity=".32" fill="#FFF"/><path d="M577.917 276.164c-.464-.011-.428.383-.043.418.034.004.067.018.1.024a2.903 2.903 0 0 0-.397-.031c-.003-.174-.089-.344-.293-.466-.203-.114-.54-.165-.937-.02a3.57 3.57 0 0 0-1.928 1.667 3.604 3.604 0 0 0-.317 2.542 3.526 3.526 0 0 0 3.913 2.668 3.453 3.453 0 0 0 2.183-1.217c.544-.65.83-1.503.8-2.337a3.392 3.392 0 0 0-.943-2.233 3.326 3.326 0 0 0-2.138-1.015" fill-opacity=".08" fill="#FFF"/><path fill-opacity=".16" fill="#00BFFB" d="M109 333.481L136.43 317l16.48 27.43-27.429 16.48z"/><path fill="url(#b)" transform="rotate(61 304.384 203.793)" d="M154.263 54.263h300v300h-300z"/><path d="M629.901 344.354a115.075 115.075 0 0 1-16.962 38.128c-7.896 11.56-17.952 21.637-29.469 29.602a115.153 115.153 0 0 1-38.089 17.168c-13.599 3.384-27.833 4.12-41.737 2.42-13.904-1.708-27.517-5.943-39.873-12.579a116.18 116.18 0 0 1-32.738-26.035c-9.227-10.555-16.526-22.795-21.387-35.95-.219-.597-.428-1.197-.637-1.796.39.2.837.415 1.356.645a30.717 30.717 0 0 0 4.293 1.57c1.751.521 3.8 1.135 6.201 1.561 1.235.236 2.465.504 3.706.714l3.736.543 1.87.266 1.88.178 3.763.354c5.028.26 10.08.417 15.113.042 10.078-.539 20.057-2.559 29.664-5.657 19.17-6.347 36.766-17.589 50.325-32.588 13.672-14.897 23.201-33.44 27.693-53.055 4.476-19.63 3.815-40.355-1.912-59.525a41.554 41.554 0 0 0-.548-1.633c.511.178 1.02.354 1.54.543 13.076 4.821 25.255 12.062 35.776 21.22a116.054 116.054 0 0 1 26.005 32.521c13.275 24.59 17.05 54.147 10.431 81.343m-7.58-82.719a118.994 118.994 0 0 0-26.697-33.5c-10.819-9.437-23.36-16.899-36.837-21.857-6.523-2.376-12.442-3.803-17.542-4.785-5.123-.887-9.434-1.33-12.888-1.46-1.729-.052-3.239-.103-4.534-.092a79.164 79.164 0 0 0-3.236.185c-1.724.143-2.58.32-2.58.517-.002.198.853.42 2.551.648.848.114 1.908.231 3.177.35l4.426.566c3.366.42 7.548 1.101 12.511 2.135 4.283.978 9.161 2.226 14.518 4.05.143.608.34 1.344.607 2.231 5.48 19.112 5.838 39.631 1.168 58.91-4.688 19.271-14.296 37.33-27.837 51.741-13.434 14.52-30.706 25.301-49.42 31.371-9.384 2.954-19.106 4.882-28.924 5.378-4.904.355-9.823.188-14.722-.064l-3.666-.347-1.832-.173-1.823-.259-3.643-.526c-1.209-.203-2.409-.464-3.614-.692-2.337-.409-4.35-.909-6.102-1.25l-4.392-.846c-1.096-.189-1.946-.28-2.568-.29-4.006-12.133-5.96-24.927-5.83-37.7.084-14.029 2.881-28.009 8.013-41.044 5.137-13.04 12.681-25.12 22.118-35.482 9.43-10.372 20.785-18.968 33.276-25.293a115.85 115.85 0 0 1 40.06-11.824c1.988-.17 3.73-.32 5.22-.45 1.491-.143 2.74-.154 3.737-.24 1.994-.137 2.994-.276 2.992-.389 0-.113-1.003-.2-3.014-.238-1.004 0-2.263-.063-3.768.027-1.504.09-3.26.198-5.263.357a116.958 116.958 0 0 0-40.514 11.792c-12.649 6.344-24.157 14.996-33.74 25.447a117.426 117.426 0 0 0-22.519 35.834c-5.244 13.184-8.14 27.343-8.28 41.565-.2 14.213 2.137 28.48 6.995 41.873 4.878 13.383 12.246 25.854 21.582 36.628a118.335 118.335 0 0 0 33.206 26.644c12.555 6.815 26.416 11.197 40.594 13.005 14.175 1.804 28.702 1.115 42.618-2.276a117.727 117.727 0 0 0 39.032-17.377 117.543 117.543 0 0 0 30.302-30.18 117.9 117.9 0 0 0 17.556-39.03c6.882-27.88 3.143-58.26-10.474-83.59" fill="url(#c)" transform="rotate(-153 518.316 317.366)"/><path fill-opacity=".72" fill="#00BFFB" d="M579.572 284.286l-27.536-20.75L572.786 236l27.536 20.75z"/><path fill="url(#d)" transform="rotate(-143 340.003 49.99)" d="M7.599 6.893h34.479L7.598 41.37z"/></g></svg>